<?xml version="1.0" encoding="utf-8"?>
<!-- Generator: Adobe Illustrator 26.2.1, SVG Export Plug-In . SVG Version: 6.00 Build 0)  -->
<svg version="1.1" id="Layer_1" xmlns="http://www.w3.org/2000/svg" xmlns:xlink="http://www.w3.org/1999/xlink" x="0px" y="0px"
	 viewBox="0 0 598.7 500" style="enable-background:new 0 0 598.7 500;" xml:space="preserve">
<style type="text/css">
	.st0{fill:#F5F5F5;}
	.st1{fill:#E0E0E0;}
	.st2{fill:#FAFAFA;}
	.st3{fill:#263238;}
	.st4{fill:#FFFFFF;}
	.st5{fill:#455A64;}
	.st6{fill:#F8B02F;}
	.st7{opacity:0.3;fill:#FFFFFF;enable-background:new    ;}
	.st8{opacity:0.3;enable-background:new    ;}
	.st9{fill:#B77153;}
	.st10{fill:#995037;}
	.st11{opacity:0.2;}
	.st12{opacity:0.4;}
</style>
<g id="freepik--background-complete--inject-383">
	<path class="st0" d="M392,200.8v44.1c0.1,7.9,6.6,14.2,14.5,14.1h158.1c8,0,14.5-6.4,14.5-14.4c0,0,0,0,0,0v-37.3l19.7-20.7
		l-192.2-0.6c-8,0-14.5,6.5-14.5,14.6C392,200.7,392,200.8,392,200.8z"/>
	<polygon class="st1" points="555.7,212.8 412.2,212.1 412.2,207.7 555.7,208.4 	"/>
	<polygon class="st1" points="555.7,227.3 412.2,226.6 412.2,222.2 555.7,222.9 	"/>
	
		<rect x="525.1" y="210.7" transform="matrix(4.886881e-03 -1 1 4.886881e-03 285.5899 765.1905)" class="st1" width="4.4" height="56.8"/>
	<path class="st0" d="M122.5,425.6c22.1-15.5,27.1-44.1,26.2-69.9c-0.1-4.3,0.3-8.8-1.7-12.6s-6.8-6.4-10.7-4.5
		c-3.2,1.5-4.6,5.2-6.4,8.3c-2.4,4.1-5.9,7.4-10.1,9.6c-2.7,1.4-6.1,2.3-8.8,0.8c-3.7-2-4.1-7.2-4.1-11.5l0.1-23.9
		c0-4.3,0-8.6-1.3-12.7s-4.3-7.8-8.3-9s-9.1,1.2-10,5.4c-0.4,1.7,0,3.5-0.1,5.3s-0.9,3.7-2.6,4.2s-3.4-0.7-4.7-2
		c-4.4-4.3-7.4-9.9-10.2-15.4s-5.5-11.2-9.5-15.9s-9.6-8.5-15.7-8.8s-12.7,3.4-14.2,9.5s2,12.1,5.8,17c5.7,7.3,12.4,13.7,19.9,19
		c1.4,1,2.8,2,3.3,3.6c0.9,2.9-1.8,5.7-4.6,6.6c-3.2,1.1-6.7,0.7-10,1.1s-7,1.9-8.2,5c-1.8,4.4,1.9,9,5.5,12
		c7.2,6,15.4,10.8,24.2,14c3.1,1.1,6.5,2.2,9,4.4s4.1,6.1,2.5,9.1s-5.5,4-8.8,3.4s-6.2-2.4-9.4-3.6c-5.9-2.2-13.5-1.8-17.2,3.3
		c-2.5,3.3-2.7,8-1.4,12s3.8,7.4,6.5,10.6c9.4,11.1,21.5,20,35.1,24.7S108.9,430.6,122.5,425.6"/>
	<path class="st1" d="M122.8,444.7c-1.2-12-3.5-23.8-7-35.3c-4.3-14-9.4-27.8-15.2-41.3c-1.5-3.6-3-7.1-4.5-10.6
		c-1.5-3.5-3-6.9-4.6-10.2c-3.2-6.3-6.8-12.4-10.6-18.3c-3.7-5.7-7.4-10.9-10.8-15.8s-6.8-9.4-10-13.3c-5-6.3-10.6-12.1-16.6-17.5
		c-2.1-1.9-3.8-3.3-5-4.3L37,277c-0.1-0.1-0.3-0.2-0.5-0.3c0.1,0.1,0.3,0.3,0.4,0.4l1.3,1.1c1.1,1,2.8,2.5,4.8,4.4
		c5.9,5.5,11.3,11.4,16.3,17.6c3.2,4,6.5,8.5,9.9,13.3s7.1,10.1,10.8,15.8c3.9,5.9,7.4,12,10.6,18.3c1.6,3.3,3.1,6.7,4.6,10.2
		l4.5,10.6c5.8,13.4,10.9,27.2,15.2,41.2c3.5,11.5,5.9,23.2,7.1,35.1"/>
	<path class="st1" d="M91.2,347.3c0.2-0.6,0.4-1.2,0.4-1.8c0.2-1.2,0.5-2.9,0.8-5c0.6-4.3,1.2-10.2,1.9-16.7s1.4-12.4,2.1-16.6
		c0.3-2.1,0.6-3.8,0.8-5c0.1-0.6,0.2-1.2,0.2-1.9c-0.2,0.6-0.4,1.2-0.5,1.8c-0.3,1.2-0.7,2.9-1.1,5c-0.8,4.2-1.6,10.1-2.3,16.7
		l-1.7,16.7c-0.2,2-0.4,3.7-0.5,5.1C91.2,346.1,91.1,346.7,91.2,347.3z"/>
	<path class="st1" d="M36.2,337c0.7,0.2,1.5,0.2,2.2,0.3c1.4,0.1,3.5,0.3,6,0.6c5,0.5,12,1.5,19.6,3s14.4,3,19.3,4.4
		c2.4,0.6,4.4,1.2,5.8,1.6c0.7,0.2,1.4,0.4,2.1,0.5c-0.6-0.3-1.3-0.6-2-0.8c-1.4-0.5-3.3-1.1-5.8-1.8c-4.9-1.4-11.7-3.1-19.3-4.6
		c-6.5-1.3-13.1-2.2-19.7-2.8c-2.5-0.2-4.6-0.3-6-0.3C37.7,336.9,36.9,336.9,36.2,337z"/>
	<path class="st1" d="M115.1,408.4c0.2-0.2,0.3-0.4,0.4-0.7c0.3-0.5,0.6-1.2,0.9-2c0.8-1.7,1.9-4.3,3.2-7.4
		c2.7-6.3,6.1-15.1,9.7-24.9s6.9-18.6,9.4-25l3-7.5c0.3-0.8,0.6-1.5,0.8-2c0.1-0.2,0.2-0.5,0.2-0.7c-0.2,0.2-0.3,0.4-0.4,0.7
		c-0.3,0.5-0.6,1.2-0.9,2c-0.8,1.7-1.9,4.3-3.2,7.4c-2.7,6.3-6.1,15.1-9.7,24.9s-6.9,18.6-9.4,25c-1.2,3.1-2.2,5.6-3,7.5
		c-0.3,0.8-0.6,1.5-0.8,2C115.3,408,115.2,408.2,115.1,408.4z"/>
	<path class="st1" d="M42,384.9c0.2,0.1,0.5,0.2,0.7,0.3l2.1,0.7l7.8,2.5c6.6,2.1,15.7,5.2,25.8,8.6s19.2,6.4,25.8,8.4
		c3.3,1,6,1.8,7.9,2.3l2.2,0.6c0.3,0.1,0.5,0.1,0.8,0.1c-0.2-0.1-0.5-0.2-0.7-0.3l-2.1-0.7l-7.8-2.5c-6.6-2.1-15.7-5.2-25.8-8.6
		s-19.2-6.4-25.8-8.4c-3.3-1-6-1.8-7.9-2.3l-2.1-0.6C42.5,384.9,42.3,384.9,42,384.9z"/>
	<path class="st1" d="M173.5,155.2v34.2c0,6.2-5,11.2-11.2,11.2H39.8c-6.2,0-11.2-5-11.2-11.2v-28.9l-15.2-16l148.9-0.5
		C168.4,144,173.5,149,173.5,155.2C173.5,155.2,173.5,155.2,173.5,155.2z"/>
	<polygon class="st2" points="46.6,164.7 157.8,164.2 157.8,160.8 46.6,161.3 	"/>
	<polygon class="st2" points="46.6,176 157.8,175.4 157.8,172 46.6,172.6 	"/>
	
		<rect x="46.6" y="183.4" transform="matrix(1 -4.886902e-03 4.886902e-03 1 -0.9038 0.3375)" class="st2" width="44" height="3.4"/>
</g>
<g id="freepik--Character--inject-383">
	<path class="st3" d="M113.5,453.3v-235c0-6.4,5.2-11.5,11.6-11.5h347.3c6.4,0,11.5,5.2,11.5,11.5v235c0,6.4-5.2,11.5-11.5,11.5H125
		C118.6,464.8,113.5,459.6,113.5,453.3z"/>
	<rect x="138.8" y="214.9" class="st4" width="309.3" height="241.8"/>
	<ellipse transform="matrix(0.2289 -0.9735 0.9735 0.2289 31.8944 711.873)" class="st5" cx="465.3" cy="335.8" rx="9.9" ry="9.9"/>
	<path class="st5" d="M124.1,373.4v-75.3c0-0.7,0.5-1.2,1.2-1.2h1.6c0.7,0,1.2,0.5,1.2,1.2v75.3c0,0.7-0.5,1.2-1.2,1.2h-1.6
		C124.7,374.6,124.1,374.1,124.1,373.4z"/>
	<circle class="st6" cx="205.7" cy="343" r="25"/>
	<circle class="st7" cx="205.7" cy="343" r="25"/>
	<path class="st3" d="M197,336.7c0.9-0.1,1.8,1,1.9,2.3s-0.6,2.5-1.5,2.6s-1.8-1-1.9-2.3S196.1,336.8,197,336.7z"/>
	<path class="st3" d="M212.9,336.4c-0.9,0-1.8,1-1.8,2.4s0.7,2.5,1.6,2.5s1.8-1,1.8-2.4S213.9,336.5,212.9,336.4z"/>
	<path class="st3" d="M215.6,348c0,0.3-4.7,0.5-10.4,0.5s-10.4-0.2-10.4-0.5s4.7-0.5,10.4-0.5S215.6,347.7,215.6,348z"/>
	<path class="st3" d="M199,333.9c-0.1,0.3-1.2,0.3-2.6,0.5s-2.5,0.6-2.7,0.3s0.9-1.1,2.5-1.4S199,333.6,199,333.9z"/>
	<path class="st3" d="M217.4,335.1c-0.2,0.2-1.3-0.3-2.6-0.7s-2.6-0.6-2.6-0.9s1.3-0.6,2.9-0.1S217.6,334.9,217.4,335.1z"/>
	<circle class="st6" cx="386.6" cy="341" r="25.9"/>
	<circle class="st8" cx="386.6" cy="341" r="25.9"/>
	<path class="st3" d="M377.6,334.4c1-0.1,1.9,1,2,2.4s-0.6,2.6-1.6,2.7s-1.9-1-2-2.4S376.6,334.5,377.6,334.4z"/>
	<path class="st3" d="M394.1,334.1c-1,0-1.8,1.1-1.9,2.5s0.7,2.6,1.7,2.6s1.8-1.1,1.9-2.5S395.1,334.1,394.1,334.1z"/>
	<path class="st3" d="M396.9,346.1c-0.1,0.1-1.2-0.6-3-1.6c-2.4-1.2-5-1.9-7.7-1.9c-2.7,0.1-5.3,0.8-7.7,2c-1.9,0.9-3,1.6-3.1,1.5
		s0.9-1,2.7-2.1c2.4-1.5,5.2-2.3,8.1-2.4c2.9,0,5.7,0.8,8.1,2.3C396.1,345,397,346,396.9,346.1z"/>
	<path class="st3" d="M379.6,331.5c0.1,0.1-0.1,0.4-0.5,0.8c-0.6,0.5-1.3,0.9-2,1c-0.8,0.1-1.5,0.1-2.2-0.2
		c-0.5-0.2-0.8-0.5-0.7-0.6s1.4,0.1,2.8-0.1S379.4,331.2,379.6,331.5z"/>
	<path class="st3" d="M398.8,332.7c0,0.1-0.2,0.4-0.8,0.6c-0.8,0.2-1.6,0.2-2.3-0.1c-0.7-0.3-1.4-0.7-1.9-1.3
		c-0.4-0.4-0.5-0.8-0.4-0.9s1.3,0.7,2.7,1.1S398.7,332.4,398.8,332.7z"/>
	<polygon class="st1" points="336.9,412.9 342.9,409.9 348.8,413.1 347.8,406.5 352.7,402 346.1,400.8 343.3,394.8 340.2,400.7 
		333.5,401.5 338.2,406.3 	"/>
	<polygon class="st6" points="312.5,412.9 318.5,409.9 324.3,413.1 323.3,406.5 328.2,402 321.6,400.8 318.8,394.8 315.7,400.7 
		309.1,401.5 313.7,406.3 	"/>
	<polygon class="st6" points="288,412.9 294,409.9 299.8,413.1 298.9,406.5 303.8,402 297.1,400.8 294.3,394.8 291.2,400.7 
		284.6,401.5 289.3,406.3 	"/>
	<polygon class="st6" points="263.5,412.9 269.5,409.9 275.3,413.1 274.4,406.5 279.3,402 272.7,400.8 269.9,394.8 266.8,400.7 
		260.1,401.5 264.8,406.3 	"/>
	<polygon class="st6" points="239,412.9 245,409.9 250.9,413.1 249.9,406.5 254.8,402 248.2,400.8 245.4,394.8 242.3,400.7 
		235.6,401.5 240.3,406.3 	"/>
	<path class="st3" d="M353,265.5c0,0.1-26.9,0.3-60,0.3s-60-0.1-60-0.3s26.9-0.3,60-0.3S353,265.4,353,265.5z"/>
	<path class="st3" d="M323.5,258.3c0,0.1-13.3,0.3-29.6,0.3s-29.6-0.1-29.6-0.3s13.3-0.3,29.6-0.3S323.5,258.2,323.5,258.3z"/>
	<circle class="st6" cx="298.2" cy="335" r="34.1"/>
	<path class="st3" d="M286.4,326.4c1.3-0.1,2.5,1.3,2.6,3.2s-0.8,3.5-2.1,3.6s-2.5-1.3-2.6-3.2S285.1,326.5,286.4,326.4z"/>
	<path class="st3" d="M308,326c-1.3-0.1-2.4,1.4-2.5,3.3s0.9,3.4,2.2,3.5s2.4-1.4,2.5-3.3S309.4,326,308,326z"/>
	<path class="st3" d="M311.8,337.1c0.1,0.1-0.2,0.4-0.8,1c-0.8,0.8-1.6,1.6-2.6,2.3c-1.4,1-2.9,1.9-4.5,2.5c-2,0.7-4.1,1.1-6.3,1
		c-2.1-0.1-4.2-0.6-6.1-1.4c-1.6-0.6-3.1-1.4-4.5-2.4c-2.4-1.6-3.7-2.9-3.6-3s1.6,0.9,4,2.3c1.4,0.8,2.9,1.5,4.5,2.1
		c1.9,0.7,3.8,1.2,5.9,1.3c2,0.1,4-0.2,5.9-0.9c1.6-0.5,3-1.3,4.4-2.2c1.2-0.8,2.1-1.5,2.7-2S311.7,337.1,311.8,337.1z"/>
	<path class="st3" d="M287.9,318.7c-0.1,0.3-1.7,0.2-3.6,0.5s-3.5,0.9-3.6,0.6s1.3-1.4,3.5-1.7S288,318.5,287.9,318.7z"/>
	<path class="st3" d="M315.4,320.3c-0.2,0.2-1.6-0.6-3.6-1.2s-3.6-0.7-3.6-1s1.8-0.7,3.9,0S315.6,320.1,315.4,320.3z"/>
	<path class="st3" d="M283.9,334.7c0.1,0,0.4,0.3,0.4,1c0,0.8-0.2,1.7-0.7,2.4c-0.5,0.7-1.2,1.2-2,1.5c-0.6,0.2-1,0.1-1,0
		c0-0.3,1.3-0.7,2.2-2.1S283.6,334.8,283.9,334.7z"/>
	<path class="st3" d="M314.7,337.8c0,0.1-0.3,0.3-0.8,0.4c-0.7,0-1.4-0.2-1.9-0.6c-0.6-0.4-1-1-1.1-1.7c-0.1-0.5,0-0.9,0.1-0.9
		c0.3,0,0.6,1,1.6,1.7S314.6,337.5,314.7,337.8z"/>
	<path class="st6" d="M339.9,334.7c0,0,0-0.2-0.1-0.7l-0.1-2c0-0.4,0-0.9-0.1-1.5s-0.2-1.1-0.3-1.8s-0.2-1.3-0.3-2.1
		c-0.1-0.8-0.3-1.6-0.5-2.3c-1-4-2.6-7.8-4.7-11.2c-2.8-4.7-6.4-8.7-10.7-12l-1.8-1.4c-0.6-0.4-1.3-0.8-2-1.2s-1.3-0.9-2.1-1.2
		l-2.2-1l-1.1-0.5l-1.2-0.4l-2.4-0.9c-0.8-0.3-1.6-0.4-2.5-0.7c-0.8-0.2-1.7-0.4-2.5-0.6c-1.8-0.3-3.5-0.5-5.3-0.6
		c-0.9,0-1.8-0.1-2.8-0.1l-2.8,0.1c-0.5,0-0.9,0-1.4,0.1l-1.4,0.2c-0.9,0.1-1.9,0.3-2.8,0.5c-1.9,0.4-3.8,1-5.6,1.6
		c-1.9,0.7-3.7,1.5-5.5,2.4c-0.9,0.5-1.7,1-2.6,1.6c-0.4,0.3-0.9,0.5-1.3,0.8l-1.2,0.9c-1.7,1.2-3.3,2.6-4.8,4.1l-2.1,2.4l-0.5,0.6
		l-0.5,0.6l-1,1.3l-1,1.3l-0.9,1.4l-0.9,1.4l-0.4,0.7l-0.4,0.7l-1.4,3l-1.1,3.1c-2.9,8.6-2.9,18,0,26.6c0.4,1,0.8,2.1,1.1,3.1
		s1,2,1.4,3l0.4,0.7l0.4,0.7l0.9,1.4l0.9,1.4l1,1.3l1,1.3l0.5,0.6l0.5,0.6l2.1,2.4c1.5,1.5,3.1,2.8,4.8,4.1l1.2,0.9
		c0.4,0.3,0.9,0.5,1.3,0.8c0.9,0.5,1.7,1.1,2.6,1.6c3.5,1.8,7.3,3.2,11.1,4.1c0.9,0.2,1.9,0.3,2.8,0.5l1.4,0.2
		c0.5,0.1,0.9,0.1,1.4,0.1l2.8,0.1c0.9,0,1.8-0.1,2.8-0.1c1.8-0.1,3.6-0.3,5.3-0.6c0.9-0.1,1.7-0.3,2.5-0.6c0.8-0.2,1.7-0.4,2.5-0.7
		l2.4-0.9l1.2-0.4l1.1-0.5l2.2-1c0.7-0.4,1.4-0.8,2.1-1.2c0.7-0.4,1.4-0.8,2-1.2l1.8-1.4c4.3-3.3,8-7.3,10.7-12
		c2.1-3.5,3.7-7.3,4.7-11.3c0.2-0.8,0.4-1.5,0.5-2.3c0.1-0.7,0.2-1.4,0.3-2.1s0.2-1.2,0.3-1.8s0.1-1,0.1-1.5c0.1-0.9,0.1-1.5,0.1-2
		S339.8,334.7,339.9,334.7c0,0,0,0.2,0,0.7s0,1.1-0.1,2c0,0.5,0,1-0.1,1.5s-0.2,1.1-0.2,1.8s-0.2,1.3-0.3,2.1
		c-0.1,0.8-0.3,1.6-0.5,2.3c-1,4-2.5,7.8-4.6,11.4c-2.8,4.7-6.4,8.8-10.8,12.1l-1.8,1.4c-0.6,0.4-1.3,0.8-2,1.2s-1.3,0.9-2.1,1.2
		l-2.2,1.1L314,374l-1.2,0.4l-2.4,0.9c-0.8,0.3-1.7,0.5-2.5,0.7c-0.8,0.3-1.7,0.5-2.6,0.6c-1.8,0.3-3.6,0.5-5.4,0.6
		c-0.9,0-1.8,0.1-2.8,0.1l-2.8-0.1c-0.5,0-1,0-1.4-0.1l-1.4-0.2c-1-0.1-1.9-0.3-2.9-0.5c-1.9-0.4-3.8-1-5.7-1.7
		c-1.9-0.7-3.8-1.5-5.6-2.4c-0.9-0.5-1.8-1.1-2.7-1.6c-0.5-0.3-0.9-0.5-1.3-0.8l-1.3-0.9c-1.7-1.3-3.3-2.6-4.8-4.1l-2.2-2.4
		l-0.5-0.6l-0.5-0.6l-1-1.3l-1-1.3l-0.9-1.4l-0.9-1.4l-0.4-0.7l-0.4-0.8l-1.5-3c-0.4-1-0.8-2.1-1.2-3.2c-2.9-8.7-2.9-18.2,0-26.9
		l1.2-3.2l1.5-3l0.4-0.8l0.4-0.7l0.9-1.4l0.9-1.4l1-1.3l1-1.3l0.5-0.6l0.5-0.6c0.7-0.8,1.5-1.6,2.2-2.4c1.5-1.5,3.1-2.8,4.8-4.1
		l1.3-0.9c0.4-0.3,0.9-0.5,1.3-0.8c0.9-0.5,1.8-1.1,2.7-1.6c1.8-0.9,3.7-1.7,5.6-2.4c1.9-0.7,3.8-1.2,5.7-1.7c1-0.2,1.9-0.3,2.9-0.5
		l1.4-0.2c0.5-0.1,1-0.1,1.4-0.1l2.8-0.1c0.9,0,1.9,0.1,2.8,0.1c1.8,0.1,3.6,0.3,5.4,0.6c0.9,0.2,1.7,0.3,2.6,0.6
		c0.8,0.2,1.7,0.4,2.5,0.7l2.4,0.9l1.2,0.4l1.1,0.5l2.2,1.1c0.7,0.3,1.4,0.8,2.1,1.2s1.4,0.8,2,1.2l1.8,1.4c4.3,3.3,8,7.4,10.8,12.1
		c2.1,3.5,3.7,7.3,4.6,11.3c0.2,0.8,0.5,1.6,0.5,2.3s0.2,1.4,0.3,2.1s0.2,1.2,0.2,1.8s0,1,0.1,1.5c0,0.9,0.1,1.5,0.1,2
		S339.9,334.7,339.9,334.7z"/>
	<rect x="138.8" y="214.9" class="st1" width="309.3" height="15.4"/>
	<path class="st4" d="M148.8,222.1c0,1.2-0.9,2.1-2.1,2.1c-1.2,0-2.1-0.9-2.1-2.1c0-1.2,0.9-2.1,2.1-2.1l0,0
		C147.8,220.1,148.8,221,148.8,222.1z"/>
	<path class="st4" d="M155.7,222.1c0,1.2-0.9,2.1-2.1,2.1c-1.2,0-2.1-0.9-2.1-2.1c0-1.2,0.9-2.1,2.1-2.1l0,0
		C154.8,220.1,155.7,221,155.7,222.1z"/>
	<path class="st4" d="M162.7,222.1c0,1.2-0.9,2.1-2.1,2.1c-1.2,0-2.1-0.9-2.1-2.1c0-1.2,0.9-2.1,2.1-2.1l0,0
		C161.7,220.1,162.7,221,162.7,222.1z"/>
	<path class="st1" d="M414,277.7c0,0.1-53.7,0.3-119.9,0.3s-119.9-0.1-119.9-0.3s53.7-0.3,119.9-0.3S414,277.5,414,277.7z"/>
	<path class="st1" d="M414,283.6c0,0.1-53.7,0.3-119.9,0.3s-119.9-0.1-119.9-0.3s53.7-0.3,119.9-0.3S414,283.5,414,283.6z"/>
	<path class="st5" d="M256.7,208.4c0,0-2.1-4.8-2.5-5.8c-1.1-2.9-8-22.1-6.3-25c7.7-13.5,13.6-23,28.8-23l26.7-0.2
		c0,0,25.3-5.2,43.2,52.4L256.7,208.4z"/>
	<path class="st5" d="M200.3,213.2l35-7.5l41.1-21.6l0.1-29.5c-6.2-1.7-18,2.6-39.2,13.4l-31.6,16.3c-9.2,4.7-12.8,16-8.1,25.2
		C198.4,210.8,199.3,212,200.3,213.2L200.3,213.2z"/>
	<path class="st9" d="M279.1,270.3c-0.5-1.7-0.2-2.7,2.3-1.9c5.3,1.8,10.1,1.2,11.3,0.2s0.1-3-1.6-2.9c-1.9,0-3.8-0.3-5.6-0.8
		c-1.5-0.4-2.9-1-4.2-1.8c-1.1-0.7-2.1-1.4-2.9-2c0,0-4.9-3.6-6.5-6.4l-16.9,7.2l2.7,8.5c0.7,3,2.8,5.5,5.7,6.5
		c4.8,1.6,12.5,1,12.5,1c1.4-0.9,6.8,6.9,8.5,9.7s3.6,3.1,4.2,1.4c0.4-1.2-4.4-9.8-6.1-12.5C281.1,274.7,280,272.5,279.1,270.3"/>
	<path class="st10" d="M267.6,278c0,0.1-0.4,0-1-0.2c-0.8-0.4-1.4-1-1.8-1.7c-0.4-0.7-0.6-1.6-0.5-2.4c0.1-0.6,0.3-1,0.3-1
		C264.5,274.8,265.7,276.9,267.6,278L267.6,278z"/>
	<path class="st10" d="M273,278.2c0,0.1-0.4,0-0.9-0.3c-0.7-0.4-1.3-1-1.6-1.7c-0.4-0.7-0.6-1.5-0.5-2.3c0.1-0.6,0.2-1,0.3-0.9
		c0,1,0.3,2.1,0.7,3C271.4,276.9,272.2,277.7,273,278.2z"/>
	<path class="st5" d="M199.3,212c0,0,53.6,61.6,53.5,60.6s24-19,24-19L224.3,191L199.3,212z"/>
	<path class="st3" d="M231.8,199.9c0,0,0.1,0.1,0.4,0.4l1,1.1l3.6,4.2c3,3.5,7.2,8.4,11.7,13.9s8.7,10.4,11.6,14l3.5,4.3l0.9,1.2
		c0.2,0.3,0.3,0.4,0.3,0.4c-0.1-0.1-0.3-0.2-0.4-0.4l-1-1.1c-0.9-1-2.1-2.4-3.6-4.2c-3-3.5-7.2-8.4-11.7-13.9s-8.7-10.4-11.6-14
		l-3.5-4.3c-0.4-0.5-0.7-0.9-0.9-1.2C232,200.2,231.9,200.1,231.8,199.9z"/>
	<path class="st3" d="M326.7,207c0.4-1.3,0.6-2.6,0.6-4c0.1-3.2-1.2-6.4-3.5-8.6c-1.3-1.4-2.7-2.6-3.8-3.8c-1-1.1-1.8-2.3-2.4-3.7
		c-0.4-1-0.5-2-0.4-3c0-0.4,0.1-0.7,0.3-1.1c-0.2,1.3,0,2.7,0.5,3.9c0.6,1.3,1.4,2.5,2.4,3.6c1.1,1.2,2.5,2.4,3.9,3.8
		c1.3,1.3,2.3,2.9,2.9,4.6c0.5,1.4,0.7,2.9,0.6,4.4c0,1-0.2,2-0.6,2.9C327.1,206.3,326.9,206.7,326.7,207z"/>
	<path class="st3" d="M254.4,159.6c0,0,0.3-0.1,0.8-0.4s1.3-0.5,2.3-0.8c1.3-0.4,2.5-0.6,3.8-0.8c1.7-0.2,3.5,0,5.2,0.5
		c2,0.6,3.9,1.8,5.3,3.4c1.6,1.8,2.7,4.1,3.2,6.5c0.6,2.6,0.8,5.3,0.5,8c-0.3,2.9-1.3,5.6-3,8c-1.7,2.3-3.9,4.2-6.4,5.7
		c-2.4,1.5-4.7,2.7-7,3.9l-11.9,6.3l-8,4.2l-2.2,1.1c-0.3,0.1-0.5,0.3-0.8,0.4c0.2-0.2,0.5-0.3,0.7-0.4l2.1-1.2l8-4.3l11.8-6.4
		c2.2-1.2,4.6-2.4,6.9-3.9c2.4-1.4,4.6-3.3,6.3-5.6c1.6-2.3,2.6-5,2.9-7.8c0.3-2.6,0.1-5.2-0.5-7.8c-0.4-2.3-1.5-4.5-3-6.3
		c-1.4-1.5-3.1-2.7-5.1-3.3c-1.6-0.5-3.3-0.7-5-0.6c-1.3,0.1-2.6,0.3-3.8,0.7c-1,0.3-1.8,0.6-2.3,0.7
		C255,159.5,254.7,159.6,254.4,159.6z"/>
	<path class="st3" d="M237.7,205.6c-0.2,0.1-0.6-3.5-3-7.1s-5.4-5.5-5.3-5.6c0.7,0.3,1.4,0.7,2,1.2c3,2.3,5.1,5.6,6,9.3
		C237.7,204,237.8,204.8,237.7,205.6z"/>
	<path class="st2" d="M316.5,198.9c-0.4,0.1-0.8,0.2-1.1,0.3c-1.1,0.2-2.3,0.3-3.4,0.1c-1.8-0.2-3.5-0.8-5.1-1.7
		c-2.1-1.2-3.7-3.1-4.7-5.3c-1.2-2.7-1.4-5.7-0.6-8.5c0.4-1.6,1.5-3,2.8-3.9c0.8-0.5,1.7-0.7,2.6-0.5c0.9,0.2,1.7,0.7,2.2,1.5
		c2,3.2,2.4,7.1,1.2,10.7c-0.6,1.9-1.6,3.6-3,5c-1.4,1.4-3.2,2.5-5.2,3c-3.9,1.1-8.2,0.1-11.2-2.7c-2.7-2.6-3.9-6.4-3.4-10.2
		c0.3-1.7,0.9-3.3,2-4.7c0.5-0.7,1.2-1.2,2-1.5c0.8-0.3,1.7-0.3,2.5,0c1.4,0.7,2.4,2.1,2.6,3.6c0.1,1.4-0.2,2.8-0.8,4.1
		c-1.1,2.1-2.5,4.1-4.3,5.7c-1.3,1.2-2.8,2.3-4.4,3.1c-1,0.5-2,1-3.1,1.3c-0.4,0.1-0.6,0.2-0.8,0.2c-0.1,0-0.2,0.1-0.3,0.1
		c0.1-0.1,0.2-0.1,0.3-0.1c0.2-0.1,0.5-0.1,0.8-0.3c1.1-0.4,2.1-0.8,3-1.4c1.6-0.9,3-1.9,4.3-3.1c1.7-1.6,3.1-3.5,4.1-5.6
		c0.6-1.2,0.8-2.5,0.7-3.9c-0.2-1.4-1.1-2.7-2.4-3.3c-0.7-0.3-1.4-0.3-2.1,0c-0.7,0.3-1.3,0.8-1.8,1.4c-1,1.3-1.7,2.9-1.9,4.5
		c-0.6,3.6,0.6,7.2,3.2,9.7c2.9,2.6,6.9,3.5,10.7,2.5c1.9-0.5,3.6-1.4,5-2.8c1.3-1.3,2.3-3,2.9-4.8c0.6-1.7,0.8-3.6,0.6-5.4
		c-0.1-0.9-0.3-1.7-0.5-2.6c-0.2-0.8-0.6-1.6-1.1-2.3c-0.5-0.7-1.2-1.1-1.9-1.3c-0.8-0.1-1.6,0-2.2,0.5c-1.3,0.8-2.2,2.1-2.7,3.6
		c-0.8,2.7-0.6,5.6,0.6,8.2c0.9,2.1,2.5,4,4.5,5.2c1.5,0.9,3.2,1.5,5,1.7C313.5,199.3,315.1,199.2,316.5,198.9z"/>
	<path class="st10" d="M320.6,138.9c-1.1-1.4-2-3-2.4-4.8c-0.2-0.6-0.2-1.2-0.1-1.7c0.1-0.6,0.7-1,1.3-1c0.6,0,1,0.6,1.3,1.1
		c1,1.5,1.8,3,2.5,4.7c0.2,0.4,0.3,0.9,0.3,1.4c0,0.5-0.3,1-0.7,1.2c-0.5,0.2-1.1,0.1-1.5-0.2c-0.4-0.3-0.7-0.8-1-1.2"/>
	<path class="st10" d="M323.1,137.8l-2.6-5.5c-0.3-0.5-0.5-1.1-0.5-1.7c-0.1-0.6,0.3-1.2,0.9-1.5c0.5-0.1,1.1,0,1.5,0.4
		c0.4,0.4,0.7,0.8,0.9,1.3l1.2,2.4c0.4,0.6,0.6,1.3,0.8,2.1c0.2,0.7,0,1.5-0.4,2.1c-0.5,0.6-1.3,0.8-2,0.5"/>
	<path class="st9" d="M311.4,154.9c0,0-3.7-4.8-4-7.3s2.8-7,9.4-8c2.4-0.3,4.7-1,6.8-2.3c0.8-0.6,1.2-1.6,0.8-2.6
		c-0.9-2.1-2.4-6-2.3-6.6c0.3-1.3,1.2-1.3,3.5,2c2.3,3.3,4.9,6.7,4.4,8.3s-8.6,6.3-8.6,6.3l2.2,3.6L311.4,154.9z"/>
	<path class="st5" d="M333.3,203.9l-25.4-49.7l16.3-9.1l34.3,54.4c0,0,1.8,3.5,4.3,7.6h-28.8"/>
	<path class="st3" d="M324,145.1c0,0-0.1,0.1-0.3,0.2l-0.9,0.5l-3.3,1.9l-11.8,6.7l0.1-0.3c2.5,5,5.7,10.9,8.9,17.2
		c4.8,9.4,9,17.9,11.9,24.2c1.5,3.1,2.6,5.7,3.4,7.4c0.4,0.9,0.7,1.5,0.9,2c0.1,0.2,0.2,0.5,0.3,0.7c-0.1-0.2-0.3-0.4-0.4-0.7
		c-0.2-0.5-0.6-1.2-1-2l-3.6-7.3c-3-6.2-7.2-14.7-12-24.1c-3.2-6.3-6.4-12.1-8.9-17.2l-0.1-0.2l0.2-0.1l11.9-6.6l3.4-1.8l0.9-0.5
		C323.8,145.1,323.9,145.1,324,145.1z"/>
	<path class="st3" d="M256.7,208.4c-2.2-3.6-3.6-7.5-4.2-11.7c0.2,0,0.9,2.7,2,5.9S256.8,208.3,256.7,208.4z"/>
	<path class="st3" d="M312.6,135.1c5.1,2.1,10.9-0.4,13-5.5c1.3-3.2,0.8-6.9-1.2-9.7c5.7-1.4,9.3-8.1,8.1-13.9s-6.3-10.3-12.1-11.6
		c-2.2-0.5-4.5-0.5-6.7,0.2c-2.2,0.7-4,2.2-5,4.3"/>
	<path class="st6" d="M311.8,122.1c0,0.1-0.7,0.2-2,0.8c-1.7,0.9-3.1,2.4-3.8,4.1c-1.2,2.6-0.9,5.7,0.6,8.1c0.4,0.7,1,1.3,1.6,1.8
		c0.6,0.6,1.4,1,2.1,1.3c3.4,1.5,7.3,0.6,9.7-2.2c0.6-0.6,1-1.4,1.4-2.1c0.3-0.7,0.5-1.5,0.6-2.3c0.6-4.7-2.8-9-7.4-9.5
		c-0.2,0-0.5,0-0.7-0.1C312.5,121.9,311.8,122.2,311.8,122.1c0.2-0.1,0.4-0.1,0.5-0.2c0.5-0.1,1.1-0.2,1.6-0.2c3.5,0,6.6,2.1,8,5.2
		c0.6,1.5,0.9,3.1,0.7,4.6c-0.1,0.9-0.3,1.7-0.7,2.5c-0.3,0.8-0.8,1.6-1.4,2.3c-2.5,3-6.7,3.9-10.3,2.4c-0.8-0.4-1.6-0.8-2.3-1.4
		c-0.7-0.6-1.2-1.2-1.7-1.9c-0.9-1.3-1.3-2.9-1.4-4.5c-0.1-3.4,1.8-6.6,4.9-8.2c0.5-0.2,1-0.4,1.5-0.6
		C311.4,122.2,311.6,122.1,311.8,122.1z"/>
	<path class="st3" d="M316.1,106.3c5.4-0.3,9.6-5,9.3-10.4c-0.2-3.2-1.9-6.1-4.6-7.8c2.3-6.4-1-13.3-7.4-15.6
		c-3.6-1.3-7.6-0.8-10.8,1.3c-4.4-7.8-14.3-10.5-22.1-6.2c-4.1,2.3-7,6.3-7.9,11c-8-3.3-17.2,0.5-20.5,8.5
		c-1.7,4.1-1.6,8.8,0.4,12.8c-6.7,0.6-11.6,6.4-11.1,13.1c0.6,6.7,6.4,11.6,13.1,11.1c-1.7,5.7,1.4,11.6,7.1,13.4
		c3.1,0.9,6.4,0.4,9.1-1.4c3.4,5.5,10.6,7.2,16.1,3.8c2.3-1.4,4.1-3.6,4.9-6.2"/>
	<path class="st9" d="M304.1,153.3c0.2-4.9,0.5-9.3,0.5-9.3s10.9-1.4,11.4-12.5s-0.6-36.7-0.6-36.7l-20-9.6l-21.6,17.4l3.4,51
		c0.5,7.4,6.8,13,14.1,12.6l0,0C298.2,165.8,303.8,160.2,304.1,153.3z"/>
	<path class="st3" d="M314.7,113.8c-0.2,0.2-1.2-0.7-2.7-0.7s-2.6,0.7-2.8,0.5s0.1-0.4,0.6-0.8c0.6-0.5,1.4-0.7,2.2-0.6
		c0.8,0,1.5,0.3,2.1,0.8C314.7,113.4,314.8,113.8,314.7,113.8z"/>
	<path class="st3" d="M298.2,113.8c-0.2,0.2-1.2-0.7-2.7-0.7s-2.6,0.7-2.8,0.5s0.1-0.4,0.6-0.8c0.6-0.5,1.4-0.7,2.2-0.6
		c0.8,0,1.5,0.3,2.1,0.8C298.1,113.4,298.3,113.8,298.2,113.8z"/>
	<path class="st3" d="M303.8,125.1c0.8-0.2,1.6-0.4,2.4-0.4c0.4,0,0.7-0.1,0.8-0.4c0-0.4,0-0.8-0.2-1.2c-0.3-1-0.7-2-1.1-3.2
		c-1.5-4.5-2.6-8.2-2.4-8.2s1.5,3.5,3,8l1,3.2c0.2,0.5,0.3,1.1,0.2,1.6c-0.1,0.3-0.4,0.5-0.6,0.6c-0.2,0.1-0.4,0.1-0.6,0.1
		C305.4,125.2,304.6,125.2,303.8,125.1z"/>
	<path class="st10" d="M304.5,144c-5.2-0.1-10.2-1.8-14.4-4.7c0,0,3.4,8.1,14.2,7.4L304.5,144z"/>
	<path class="st3" d="M289.1,85.8c-3.6,5.1-3.5,12,0.2,17c1.6,2.1,4.1,3.8,6.7,3.8s5.2-2.6,4.7-5.2c-0.9,2.9,0.7,6,3.6,6.9
		s6-0.7,6.9-3.6c0.3-1,0.3-2.1,0.1-3.1c0.2,1.2,0.6,2.4,1.2,3.4c0.6,1.1,1.8,1.7,3.1,1.6c1.7-0.2,2.6-2,3-3.7
		c1.1-5-0.6-10.3-4.2-13.9c-3.7-3.5-8.8-5.3-13.9-4.9c-5.1,0.4-9.9,2.6-13.6,6"/>
	<path class="st3" d="M290.5,89.7c1.4,3.1,2.2,6.6,2.2,10c0.1,3.5-1.2,6.8-3.6,9.4c-2.4,2.5-6.1,3.4-9.5,2.3c0.9,3,0.4,6.3-1.4,8.9
		c-1.9,2.5-5.5,3.7-8.2,2.2c-2.5-1.3-3.5-4.3-3.9-7.1c-1.5-12.5,7.4-23.8,19.8-25.3c1.6-0.2,3.3-0.2,4.9-0.1"/>
	<path class="st9" d="M276.8,116.2c-1.5-0.9-3.5-0.2-4.7,1.1c-2.4,2.6-2.2,6.7,0.4,9c1.6,1.5,3.8,2,5.9,1.5"/>
	<path class="st10" d="M276.4,124.5c0,0.1-0.5,0.1-1.3-0.1c-1-0.3-1.9-1-2.3-2c-0.2-0.6-0.2-1.2,0.1-1.8c0.2-0.4,0.5-0.8,0.9-1.1
		c0.7-0.4,1.2-0.4,1.2-0.4s-0.5,0.2-1,0.7c-0.7,0.6-1,1.5-0.7,2.4c0.4,0.9,1,1.5,1.9,1.8C276,124.3,276.4,124.4,276.4,124.5z"/>
	<path class="st3" d="M299.1,109.2c-0.1,0.4-1.8,0.3-3.7,0.4s-3.5,0.3-3.7-0.1s1.4-1.4,3.6-1.5S299.3,108.8,299.1,109.2z"/>
	<path class="st3" d="M314.7,108.9c-0.2,0.2-0.5,0-0.9-0.1c-0.4-0.1-0.9-0.1-1.4-0.1c-0.6,0-1.2,0.2-1.7,0.2s-0.8-0.1-0.9-0.3
		s0.2-0.5,0.6-0.8c0.6-0.4,1.2-0.6,1.9-0.7c0.8-0.1,1.6,0.2,2.1,0.8C314.8,108.4,314.9,108.8,314.7,108.9z"/>
	<path class="st10" d="M301.2,127.9c0.8-0.5,1.9-0.7,2.8-0.4c1,0.3,1.5,1.3,1.4,2.3c-0.1,0.5-0.5,1-0.9,1.3
		c-0.7,0.5-1.5,0.7-2.3,0.6c-0.8-0.2-1.5-0.8-1.7-1.6c-0.2-0.8,0.2-1.7,0.9-2.1"/>
	<path class="st3" d="M306.7,129.1c0,0-0.4,0.3-1.1,0.5c-0.9,0.2-1.9,0.1-2.8-0.3c-0.9-0.4-1.6-1-2.2-1.8c-0.4-0.6-0.5-1.1-0.4-1.1
		s0.3,0.3,0.7,0.9c0.6,0.7,1.3,1.2,2.1,1.5c0.8,0.3,1.7,0.5,2.6,0.4C306.2,129.1,306.6,129,306.7,129.1z"/>
	<path class="st6" d="M284.1,134.4c-0.1,0,0-0.8-0.4-2.1c-0.5-1.9-1.6-3.5-3.2-4.6c-1.1-0.8-2.3-1.3-3.6-1.6c-1.5-0.3-3-0.1-4.4,0.4
		c-0.8,0.3-1.5,0.7-2.1,1.2c-0.7,0.5-1.3,1.1-1.8,1.8c-2.2,3-2.2,7,0,9.9c0.5,0.7,1.1,1.3,1.8,1.8c0.6,0.5,1.4,0.9,2.1,1.2
		c4.4,1.6,9.3-0.7,10.9-5.1c0.1-0.2,0.2-0.5,0.2-0.7C284.1,135.1,284.1,134.4,284.1,134.4c0,0.2,0,0.4,0,0.5c0,0.5-0.1,1.1-0.2,1.6
		c-0.4,1.9-1.6,3.7-3.1,4.9c-1.1,0.9-2.4,1.4-3.7,1.7c-1.6,0.3-3.2,0.2-4.7-0.4c-0.8-0.3-1.6-0.7-2.3-1.2c-0.7-0.5-1.4-1.2-1.9-1.9
		c-2.3-3.1-2.3-7.4,0-10.6c0.5-0.7,1.2-1.4,1.9-1.9c0.7-0.5,1.4-0.9,2.3-1.2c2.8-1,6-0.5,8.4,1.3c1.6,1.2,2.7,2.9,3.1,4.9
		c0.1,0.5,0.2,1.1,0.2,1.6C284.1,134,284.1,134.2,284.1,134.4z"/>
	<path class="st5" d="M314.7,84.7c0.1,0,0.2,0,0.3,0.1c0.3,0.1,0.5,0.3,0.7,0.4c0.8,0.8,1.1,1.9,0.9,2.9c-0.4,1.6-1.8,2.8-3.5,3.1
		c-2.1,0.2-4.1-0.2-5.9-1.4l-2.1-1.2l2.3,0.7c0.8,0.3,1.4,0.9,1.6,1.8c0.2,0.8,0.1,1.7-0.3,2.4c-0.5,0.7-1.2,1.2-2,1.4
		c-0.8,0.2-1.7,0.2-2.5-0.1c-1.8-0.7-3.4-2-4.4-3.8l-1.5-2.1l1.8,1.8c1,1,1.3,2.4,1,3.8c-0.3,1.2-1.1,2.3-2.2,2.8
		c-1.9,0.9-4.1,0.6-5.7-0.7c-1-0.8-1.8-2-2.2-3.2c-0.1-0.3-0.2-0.7-0.2-1c0-0.1,0-0.2,0-0.4c0,0,0.1,0.5,0.4,1.3
		c0.4,1.2,1.2,2.2,2.2,3c1.5,1.2,3.6,1.4,5.3,0.6c1-0.5,1.7-1.4,2-2.5c0.3-1.2,0-2.4-0.9-3.3l0.4-0.3c0.9,1.6,2.4,2.9,4.1,3.5
		c1.4,0.5,3.1,0.1,4-1.1c0.7-1.2,0.3-3-0.9-3.4l0.2-0.4c1.6,1.1,3.6,1.6,5.5,1.4c1.5-0.2,2.8-1.3,3.3-2.8c0.2-1-0.1-2-0.7-2.8
		C315.3,85,315,84.8,314.7,84.7z"/>
	<path class="st5" d="M288,102.5c0,0,0,0.1-0.1,0.2c-0.1,0.2-0.3,0.3-0.5,0.5c-0.6,0.6-1.4,1-2.2,1.3c-1.3,0.4-2.7,0.5-4,0.1
		c-1.7-0.5-3.2-1.8-4-3.4l0.4-0.1c-0.6,3.5-3.9,5.9-7.4,5.4c-3.5-0.6-5.9-3.9-5.4-7.4c0.2-1.4,0.9-2.7,1.9-3.6l0.4,0.4
		c-1.2,1-2.7,1.5-4.2,1.5c-1.4,0-2.8-0.3-4-1.1c-1.1-0.7-1.9-1.6-2.4-2.8c-0.4-1-0.6-2-0.5-3.1c0.1-1.5,0.7-2.9,1.6-4.1
		c0.3-0.4,0.8-0.7,1.2-1c0,0-0.5,0.3-1.1,1.1c-0.9,1.1-1.4,2.5-1.5,4c0,1,0.1,2,0.5,2.9c0.5,1.1,1.2,2,2.2,2.6c1.1,0.7,2.4,1,3.7,1
		c1.4,0,2.8-0.5,3.9-1.4l0.3,0.4c-1.7,1.8-2.2,4.4-1.3,6.7c1.2,2.5,3.9,3.9,6.7,3.4c2.4-0.6,4.2-2.5,4.7-4.9l0.1-0.7l0.3,0.6
		c0.7,1.5,2.1,2.7,3.7,3.3c1.2,0.4,2.6,0.4,3.9,0c0.8-0.2,1.6-0.6,2.2-1.2C287.8,102.8,288,102.5,288,102.5z"/>
	<path class="st5" d="M268.2,120.3c-0.3,0.2-0.5,0.4-0.9,0.5c-0.9,0.4-1.8,0.5-2.8,0.4c-1.5-0.1-2.8-0.8-3.8-1.9
		c-1.3-1.4-1.8-3.3-1.5-5.1l0.5,0.2c-1,1.3-2.3,2.4-3.8,3.1c-1.1,0.5-2.4,0.8-3.6,0.8c-1.2,0-2.3-0.3-3.4-0.9
		c-1.8-0.9-3-2.7-3.2-4.7c-0.1-1.3,0.2-2.7,1-3.8c0.2-0.3,0.5-0.5,0.8-0.8c0.1-0.1,0.2-0.2,0.3-0.2c0,0-0.4,0.3-0.9,1.1
		c-0.7,1.1-1,2.3-0.8,3.6c0.2,1.9,1.4,3.5,3.1,4.4c2,1.1,4.5,1.1,6.5,0.1c1.4-0.7,2.6-1.7,3.6-2.9l0.6-0.8l-0.2,1
		c-0.3,1.7,0.2,3.4,1.3,4.7c0.9,1,2.2,1.7,3.5,1.8c0.9,0.1,1.8,0,2.7-0.3C267.9,120.5,268.2,120.3,268.2,120.3z"/>
	<path class="st5" d="M324.8,98.7c0.2,0.6,0.3,1.2,0.2,1.8c-0.2,3.2-2.7,5.7-5.9,6.1c-0.6,0.1-1.3,0.1-1.9-0.1c0-0.1,0.7,0,1.8-0.2
		c2.9-0.5,5.1-2.9,5.5-5.8C324.9,99.4,324.8,98.7,324.8,98.7z"/>
	<path class="st5" d="M331,109.1c0.1,0.2,0.2,0.5,0.2,0.8c0.1,0.7,0,1.5-0.2,2.2c-0.4,1.1-1.3,1.9-2.4,2.2c-0.7,0.1-1.4,0.1-2-0.2
		c-0.7-0.3-1.3-0.8-1.6-1.5l0.5-0.2c0.1,0.3,0.1,0.7,0.1,1c-0.1,1.6-1,3-2.5,3.6c-0.6,0.2-1.3,0.3-2,0.1c-0.6-0.2-1.1-0.4-1.5-0.8
		c-0.6-0.5-1.1-1.3-1.2-2.1c-0.1-0.6,0-0.9,0-0.9s0,0.3,0.2,0.8c0.2,0.7,0.7,1.4,1.2,1.8c0.9,0.7,2,0.9,3.1,0.6
		c1.3-0.5,2.1-1.7,2.1-3.1c0-0.3,0-0.6-0.1-0.8l0.5-0.2c0.6,1.1,1.8,1.7,3,1.4c1-0.2,1.8-0.9,2.2-1.9c0.3-0.6,0.4-1.3,0.4-2
		C331,109.4,330.9,109.1,331,109.1z"/>
	<path class="st3" d="M300.5,124c0.1,0,0.1,0.2,0,0.6c-0.3,0.9-1.1,1.5-2,1.6c-0.4,0-0.6-0.1-0.5-0.1s0.8-0.2,1.5-0.8
		S300.3,124,300.5,124z"/>
</g>
<g id="freepik--Floor--inject-383">
	<path class="st3" d="M586.2,464.8c0,0.1-129,0.3-288.1,0.3S9.9,465,9.9,464.8s129-0.3,288.2-0.3S586.2,464.7,586.2,464.8z"/>
</g>
<g id="freepik--Plant--inject-383">
	<path class="st6" d="M538.8,410.8c-2.5,3.6-7.3,2.4-9.6,0.2s-3.2-5.3-4.1-8.3c-2-6.9-4-14.1-2.5-21.1c0.4-2.1,1.3-4.1,2.7-5.7
		c1.4-1.6,3.7-2.4,5.8-1.9c2.5,0.6,4,3,5.1,5.3c3.2,6.7,5,14.1,5,21.6C541.2,404.3,540.8,407.9,538.8,410.8"/>
	<g class="st11">
		<path d="M538.8,410.8c-2.5,3.6-7.3,2.4-9.6,0.2s-3.2-5.3-4.1-8.3c-2-6.9-4-14.1-2.5-21.1c0.4-2.1,1.3-4.1,2.7-5.7
			c1.4-1.6,3.7-2.4,5.8-1.9c2.5,0.6,4,3,5.1,5.3c3.2,6.7,5,14.1,5,21.6C541.2,404.3,540.8,407.9,538.8,410.8"/>
	</g>
	<path class="st6" d="M529.5,428.9c-4.2-2-8.9-2.6-13.5-1.6c-2.4,0.4-5,1.1-6.6,3s-2,5-0.1,6.6c1.2,0.8,2.7,1.2,4.2,1.1
		c3.5,0,7.5-0.7,10.3,1.5c1.6,1.2,2.7,3.2,4.6,3.9c2,0.4,4-0.5,5-2.2c0.9-1.8,1.1-3.8,0.6-5.8C533.6,432.5,531.9,430.1,529.5,428.9z
		"/>
	<path class="st6" d="M545.7,415.9c-2.7-3.2-3.2-7.9-2-11.9c1.4-4,3.8-7.6,7.1-10.3c3.7-3.3,8-5.8,12.7-7.5c1.8-0.7,3.7-1.1,5.7-1
		c2,0.1,3.8,1.2,4.8,2.9c1.3,2.5,0.1,5.6-1.3,8.1c-2.4,4.5-5.2,8.7-8.3,12.7c-2.5,3.2-5.3,6.4-9.2,7.8s-7.7,1.3-9.8-1.4"/>
	<path class="st3" d="M539,464.6c-0.1-0.5-0.2-1.1-0.2-1.6c-0.1-1.2-0.3-2.7-0.4-4.4c-0.2-2.2-0.6-4.3-1-6.5
		c-0.6-2.6-1.4-5.2-2.4-7.7c-1-2.5-2.3-4.8-3.9-6.9c-1.3-1.7-3-3.1-4.9-4.1c-1.3-0.7-2.7-1.1-4.2-1.3c-0.5,0-1.1-0.1-1.6-0.2
		c0.5-0.1,1.1-0.1,1.6,0c1.5,0.1,3,0.5,4.3,1.1c2,1,3.8,2.4,5.2,4.1c1.7,2.1,3.1,4.5,4,7.1c1,2.5,1.8,5.1,2.3,7.8
		c0.4,2.2,0.7,4.4,0.9,6.6c0.1,1.9,0.2,3.4,0.2,4.5C539.1,463.5,539.1,464,539,464.6z"/>
	<path class="st3" d="M538.7,461.2c0-0.2,0-0.5,0-0.8c0-0.6,0-1.3,0-2.1c0-1.9,0-4.6-0.1-7.9c-0.2-6.7-0.7-15.9-1.8-26
		s-2.6-19.2-3.9-25.8c-0.3-1.6-0.6-3.1-1-4.4s-0.5-2.4-0.8-3.3s-0.4-1.5-0.5-2.1c-0.1-0.2-0.1-0.5-0.1-0.8c0.1,0.2,0.2,0.5,0.3,0.7
		l0.6,2.1c0.3,0.9,0.6,2,0.9,3.3s0.7,2.8,1,4.4c1.8,8.5,3.2,17.1,4.2,25.8c1.1,10.1,1.6,19.4,1.7,26c0,3.3,0,6-0.1,7.9
		c-0.1,0.9-0.1,1.6-0.1,2.1C538.7,460.7,538.7,460.9,538.7,461.2z"/>
	<path class="st3" d="M538.6,443.4c-0.1-0.7-0.1-1.5,0-2.2c0.1-1.4,0.3-3.5,0.7-6.1c0.5-3,1.2-6,2-8.9c1-3.6,2.2-7.1,3.7-10.5
		c2.6-6.3,6.3-12,10.9-17c0.8-0.8,1.7-1.6,2.6-2.4c0.4-0.3,0.7-0.7,1.1-0.9l1-0.7c0.6-0.5,1.2-0.9,1.9-1.2c-2.2,1.7-4.2,3.6-6.2,5.5
		c-4.5,5-8.1,10.7-10.6,16.9c-1.5,3.4-2.7,6.8-3.7,10.4c-1,3.3-1.6,6.3-2.1,8.8s-0.7,4.6-0.9,6C538.9,441.9,538.8,442.6,538.6,443.4
		z"/>
</g>
<g transform="translate(92.337 272.86)" class="st12">
	<path class="st3" d="M463.8,179.1v5.4h-0.7v-5.4H463.8z"/>
	<path class="st3" d="M465,184.6c0-0.2,0-0.7,0-1v-4.7h0.7v2.5l0,0c0.3-0.5,0.8-0.8,1.3-0.7c0.9,0,1.6,0.8,1.6,2
		c0,1.4-0.9,2.1-1.8,2.1c-0.5,0-1.1-0.2-1.3-0.7l0,0v0.6L465,184.6z M465.8,183c0,0.1,0,0.2,0,0.2c0.2,0.5,0.5,0.9,1.1,0.9
		c0.8,0,1.2-0.6,1.2-1.5c0-0.8-0.4-1.5-1.2-1.5c-0.5,0-0.9,0.4-1.1,0.9c0,0.1,0,0.2-0.1,0.3L465.8,183z"/>
	<path class="st3" d="M470.2,183.7c0.4,0.2,0.8,0.4,1.2,0.4c0.7,0,1.2-0.4,1.2-0.9c0-0.5-0.3-0.8-1-1.1c-0.9-0.3-1.4-0.8-1.4-1.6
		c0.1-0.9,0.8-1.6,1.6-1.5c0.1,0,0.1,0,0.2,0c0.4,0,0.9,0.1,1.2,0.2l-0.2,0.5c-0.3-0.2-0.7-0.2-1-0.2c-0.8,0-1,0.5-1,0.8
		c0,0.5,0.3,0.8,1.1,1.1c0.9,0.4,1.4,0.8,1.4,1.6c0,0.9-0.6,1.6-1.9,1.6c-0.5,0-0.9-0.1-1.4-0.3L470.2,183.7z"/>
	<path class="st3" d="M476.6,179.4l-0.8,1l0,0l1.2-0.2v0.5l-1.2-0.2l0,0l0.8,0.9l-0.5,0.3l-0.5-1.2l0,0l-0.5,1.2l-0.5-0.3l0.8-1l0,0
		l-1.2,0.2v-0.5l1.2,0.2l0,0l-0.8-1l0.5-0.3l0.5,1.1l0,0l0.5-1.2L476.6,179.4z"/>
</g>
</svg>
